<?xml version="1.0" encoding="UTF-8"?>
<!-- Generator: visioncortex VTracer 0.6.3 -->
<svg version="1.1" xmlns="http://www.w3.org/2000/svg" width="1280" height="720">
<path d="M0 0 C2.29 3.43 3.71 7.01 5.22 10.82 C5.54 11.63 5.86 12.44 6.19 13.27 C7.28 15.98 8.36 18.69 9.43 21.41 C10.21 23.35 10.98 25.29 11.76 27.23 C13.44 31.43 15.11 35.63 16.78 39.84 C20.87 50.09 24.96 60.34 29.06 70.6 C30.01 72.98 30.96 75.37 31.91 77.76 C38.82 95.07 45.75 112.37 52.71 129.66 C53.15 130.74 53.59 131.83 54.04 132.95 C56.69 139.53 59.34 146.12 61.99 152.7 C73.43 181.14 84.85 209.59 96.17 238.07 C96.92 239.95 97.66 241.82 98.41 243.7 C103.17 255.68 107.93 267.66 112.68 279.65 C114.42 284.04 116.16 288.42 117.9 292.8 C118.7 294.81 119.49 296.82 120.29 298.82 C124.45 309.36 128.73 319.84 133.23 330.24 C133.63 331.17 134.03 332.09 134.45 333.05 C142.3 351.04 151.47 366.65 165 381 C165.59 381.64 166.17 382.28 166.77 382.93 C183.91 401 208.24 409.27 232.58 410.03 C245.52 410.21 257.69 408.39 270.2 405.15 C272.11 404.67 274.06 404.33 276 404 C276.99 404.66 277.98 405.32 279 406 C278.78 406.55 278.57 407.1 278.34 407.67 C262.86 447.56 257.88 490.45 274.3 531 C275 533 275 533 275 536 C273.86 535.84 272.72 535.68 271.55 535.52 C259.63 534.04 248.08 533.91 237 539 C235.97 539.46 234.93 539.93 233.87 540.4 C223.11 545.7 214.29 553.47 206 562.06 C191.62 576.8 172.85 588.01 155 598 C153.92 598.61 153.92 598.61 152.82 599.23 C119.5 617.86 83 629.5 46.06 638.5 C45.02 638.76 43.98 639.01 42.91 639.27 C41.94 639.5 40.97 639.73 39.97 639.97 C39.13 640.17 38.29 640.37 37.42 640.58 C34.9 641.02 32.55 641.08 30 641 C34.95 638.11 40.33 637 46 637 C46 636.34 46 635.68 46 635 C46.53 634.83 47.06 634.65 47.6 634.47 C74.82 625.46 101.25 615.28 123 596 C123.84 595.31 124.67 594.61 125.54 593.9 C141.67 580.19 151.48 562.14 154 541 C155.37 519.12 149.76 499.43 140.95 479.68 C137.65 472.27 134.57 464.76 131.5 457.25 C126.14 444.16 120.72 431.1 115.25 418.06 C114.87 417.16 114.5 416.27 114.11 415.34 C112.18 410.74 110.26 406.15 108.33 401.55 C104.49 392.39 100.65 383.23 96.81 374.06 C96.44 373.17 96.06 372.27 95.68 371.35 C88.71 354.7 81.76 338.05 74.83 321.39 C72.97 316.93 71.12 312.48 69.26 308.03 C68.95 307.28 68.64 306.54 68.32 305.77 C66.76 302.01 65.19 298.25 63.62 294.49 C60.82 287.76 58.01 281.03 55.21 274.3 C48.45 258.04 41.66 241.79 34.81 225.56 C30.26 214.76 25.72 203.96 21.25 193.12 C16.17 180.82 11.08 168.53 5.97 156.24 C5.08 154.11 4.2 151.97 3.31 149.83 C-3.03 134.51 -3.03 134.51 -9.93 119.43 C-10.88 117.28 -11.52 115.3 -12 113 C-15.85 121.26 -18.94 129.76 -22.06 138.31 C-22.67 139.98 -23.29 141.65 -23.9 143.32 C-25.94 148.88 -27.97 154.44 -30 160 C-30.72 161.98 -31.45 163.96 -32.17 165.95 C-35.28 174.45 -38.38 182.95 -41.48 191.45 C-45.67 202.92 -49.88 214.39 -54.11 225.85 C-54.54 227.01 -54.96 228.16 -55.4 229.35 C-55.83 230.51 -56.26 231.67 -56.7 232.86 C-65.85 257.65 -74.89 282.47 -83.83 307.33 C-84.75 309.88 -85.67 312.44 -86.59 314.99 C-86.82 315.62 -87.04 316.25 -87.28 316.89 C-91.78 329.41 -96.33 341.91 -100.88 354.41 C-110.95 382.03 -120.89 409.71 -130.73 437.41 C-131.81 440.47 -132.9 443.54 -133.99 446.6 C-136.41 453.42 -138.83 460.25 -141.24 467.07 C-142.07 469.41 -142.9 471.74 -143.72 474.07 C-154.25 503.75 -163.5 531.96 -149.22 562.23 C-135.92 589.08 -113.08 605.56 -87 619 C-86.33 619.35 -85.65 619.7 -84.96 620.06 C-73.02 626.18 -60.5 630.6 -47.84 635.01 C-44.03 636.34 -40.23 637.7 -36.44 639.06 C-34.63 639.71 -32.81 640.35 -31 641 C-34.95 642.49 -38.1 641.54 -42.13 640.63 C-42.83 640.47 -43.53 640.31 -44.26 640.15 C-46.55 639.63 -48.84 639.1 -51.12 638.56 C-52.3 638.29 -52.3 638.29 -53.5 638.01 C-67.89 634.67 -82 630.72 -96 626 C-96.94 625.69 -97.88 625.37 -98.85 625.05 C-135.39 612.72 -169.96 594.2 -200 570 C-201.46 568.85 -201.46 568.85 -202.96 567.68 C-207.7 563.91 -212.16 559.93 -216.54 555.74 C-228.16 544.66 -241.19 534.86 -257.88 533.91 C-264.63 534.1 -271.32 535.05 -278 536 C-279 534 -279 534 -277.89 530.36 C-277.35 528.82 -276.8 527.28 -276.25 525.75 C-271.76 512.79 -268.89 499.79 -268.8 486.01 C-268.79 485.28 -268.78 484.54 -268.78 483.78 C-268.58 456.97 -272.5 434.47 -281.34 409.12 C-282 407 -282 407 -282 405 C-277.72 405.6 -274.64 407.16 -270.88 409.25 C-250.97 419.62 -227.39 421.82 -205.94 415.31 C-183.57 407.19 -167.63 390.74 -155 371 C-154.09 369.6 -154.09 369.6 -153.16 368.17 C-148.32 360.54 -144.44 352.84 -140.94 344.5 C-140.39 343.2 -139.83 341.91 -139.28 340.62 C-133.29 326.53 -127.57 312.32 -121.86 298.12 C-118.74 290.34 -115.59 282.57 -112.44 274.81 C-110.87 270.95 -109.31 267.09 -107.74 263.23 C-105.57 257.88 -103.41 252.54 -101.24 247.19 C-94.32 230.13 -87.41 213.07 -80.5 196 C-73.29 178.18 -66.07 160.36 -58.84 142.54 C-56.36 136.41 -53.87 130.27 -51.38 124.14 C-50.12 121.04 -48.87 117.94 -47.61 114.84 C-44.57 107.34 -41.53 99.84 -38.5 92.35 C-35.76 85.59 -33.02 78.83 -30.28 72.07 C-28.27 67.14 -26.27 62.21 -24.28 57.27 C-21.81 51.17 -19.33 45.07 -16.86 38.97 C-15.88 36.55 -14.9 34.13 -13.92 31.72 C-12.54 28.31 -11.16 24.9 -9.77 21.49 C-9.37 20.48 -8.96 19.46 -8.54 18.42 C-5.97 12.12 -3.13 6.03 0 0 Z " fill="#000100" transform="translate(643,9)"/>
<path d="M0 0 C4.33 3.34 8.09 7.06 11.91 10.95 C23.78 23.09 23.78 23.09 36.65 34.14 C38.93 35.94 41.05 37.84 43.19 39.81 C61.65 56.3 83.38 70.07 105 82 C105.85 82.47 106.71 82.95 107.59 83.44 C121.63 91.17 135.88 97.64 151 103 C151.82 103.29 152.64 103.58 153.48 103.88 C187.53 115.76 231.94 124.23 266 108 C275.84 102.32 281.5 95.76 285 85 C286.49 84.5 286.49 84.5 288 84 C288.2 84.7 288.39 85.4 288.59 86.12 C292.11 97.28 298.63 102.92 308.75 108.46 C342.44 124.39 387.66 114.98 421.12 103.22 C456.95 90.24 490.01 71.46 520 48 C520.82 47.36 521.64 46.72 522.48 46.07 C528.41 41.38 534.17 36.51 539.92 31.61 C540.95 30.74 541.97 29.87 543 29 C543.53 28.55 544.05 28.11 544.59 27.65 C547.24 25.42 549.9 23.33 552.75 21.38 C558.24 17.33 562.55 12.12 567 7 C567 10.52 566.54 10.88 564.23 13.36 C563.65 13.98 563.07 14.6 562.48 15.24 C561.87 15.88 561.25 16.53 560.62 17.19 C559.72 18.17 559.72 18.17 558.8 19.17 C555.45 22.74 555.45 22.74 554 24 C553.34 24 552.68 24 552 24 C552 24.66 552 25.32 552 26 C551.34 26 550.68 26 550 26 C549.77 26.56 549.53 27.12 549.29 27.7 C545.43 34.59 538.14 40 532.18 45.1 C529.99 47.01 527.86 48.97 525.73 50.95 C519.68 56.56 513.48 61.89 507 67 C506.42 67.46 505.85 67.92 505.25 68.4 C486.39 83.39 466.23 96.6 445 108 C444.13 108.47 443.26 108.93 442.37 109.42 C420.64 121 397.7 129.42 374 136 C373.14 136.24 372.27 136.48 371.38 136.73 C351.43 142.21 331.29 144.92 310.62 145.42 C309.46 145.45 308.3 145.48 307.1 145.51 C217.55 147.63 132.38 123.83 63.56 64.33 C61.17 62.29 58.7 60.34 56.25 58.38 C51.24 54.28 46.5 49.94 41.76 45.54 C39.58 43.54 37.38 41.6 35.12 39.69 C26.12 31.87 17.63 23.16 10 14 C9.12 12.97 8.24 11.95 7.36 10.92 C6.43 9.82 5.5 8.72 4.56 7.62 C4.11 7.1 3.66 6.58 3.2 6.03 C0 2.23 0 2.23 0 0 Z " fill="#000100" transform="translate(353,561)"/>
<path d="M0 0 C0 0.99 0 1.98 0 3 C-0.99 3.5 -0.99 3.5 -2 4 C-1.34 2.68 -0.68 1.36 0 0 Z " fill="#000100" transform="translate(925,562)"/>
<path d="M0 0 C4 1 4 1 4 1 Z " fill="#000100" transform="translate(669,650)"/>
<path d="" fill="#000100" transform="translate(0,0)"/>
<path d="" fill="#000100" transform="translate(0,0)"/>
<path d="" fill="#000100" transform="translate(0,0)"/>
<path d="" fill="#000100" transform="translate(0,0)"/>
<path d="" fill="#000100" transform="translate(0,0)"/>
<path d="" fill="#000100" transform="translate(0,0)"/>
<path d="" fill="#000100" transform="translate(0,0)"/>
<path d="" fill="#000100" transform="translate(0,0)"/>
<path d="" fill="#000100" transform="translate(0,0)"/>
<path d="" fill="#000100" transform="translate(0,0)"/>
<path d="" fill="#000100" transform="translate(0,0)"/>
<path d="" fill="#000100" transform="translate(0,0)"/>
<path d="" fill="#000100" transform="translate(0,0)"/>
<path d="" fill="#000100" transform="translate(0,0)"/>
</svg>
