<?xml version="1.0" encoding="UTF-8"?>
<!-- Generator: visioncortex VTracer 0.6.3 -->
<svg version="1.1" xmlns="http://www.w3.org/2000/svg" width="1280" height="720">
<path d="M0 0 C37.76 0.95 73.66 12.63 109 25 C109.67 25.23 110.33 25.46 111.02 25.7 C136.25 34.5 160.83 44.76 185.06 56 C203.38 64.48 221.81 70.8 241.88 73.64 C244 74 244 74 246 75 C245.76 74.05 245.53 73.09 245.28 72.11 C244.39 68.54 243.51 64.97 242.64 61.4 C242.26 59.86 241.88 58.32 241.49 56.78 C237.58 41.04 237.58 41.04 237 33 C245.75 36.53 254.27 40.43 262.75 44.56 C264.03 45.18 265.3 45.8 266.58 46.42 C269.78 47.98 272.99 49.55 276.19 51.11 C277.89 51.95 279.6 52.78 281.31 53.61 C296.19 60.87 310.69 68.66 325 77 C326.6 77.93 326.6 77.93 328.23 78.88 C340.8 86.19 353.24 93.68 365.5 101.5 C366.5 102.13 367.49 102.77 368.52 103.42 C375.19 107.72 381.61 112.29 388 117 C389.5 118.08 391.01 119.16 392.52 120.24 C401.87 126.93 411.04 133.79 420 141 C420.92 141.73 421.84 142.47 422.78 143.23 C439.86 157.04 455.94 171.88 471.5 187.38 C472.34 188.21 473.17 189.04 474.04 189.9 C478.9 194.77 483.53 199.77 488 205 C488.96 206.09 489.92 207.19 490.89 208.28 C519.83 241.4 558.54 292.9 557.31 339.32 C556.37 347.51 553.21 354.87 549.44 362.12 C541.99 376.54 542.77 388.68 544.06 404.51 C544.17 405.89 544.28 407.27 544.39 408.66 C544.62 411.53 544.85 414.41 545.08 417.29 C545.38 420.96 545.67 424.63 545.96 428.3 C546.19 431.15 546.42 433.99 546.64 436.84 C546.81 438.84 546.96 440.85 547.12 442.86 C547.22 444.09 547.32 445.32 547.43 446.58 C547.51 447.65 547.6 448.73 547.69 449.83 C548.02 453.24 548.51 456.61 549 460 C551.54 498.41 537.17 533.29 512.35 562.14 C510.97 563.68 509.58 565.2 508.16 566.7 C506.33 568.65 504.58 570.64 502.84 572.67 C498.62 577.51 494.11 582.04 489.56 586.56 C488.75 587.37 487.95 588.19 487.12 589.02 C482.24 593.89 477.25 598.55 472 603 C471.46 603.46 470.93 603.91 470.38 604.38 C468.97 605.58 467.55 606.76 466.12 607.94 C465.2 608.71 464.27 609.48 463.32 610.28 C461 612 461 612 459 612 C459.36 607.02 459.73 602.04 460.12 597.06 C460.25 595.37 460.37 593.68 460.49 591.98 C460.67 589.54 460.86 587.1 461.05 584.66 C461.1 583.91 461.15 583.16 461.2 582.4 C461.73 576 463.12 570.33 467.23 565.24 C470.42 562.66 473.61 560.91 477.31 559.19 C478.28 558.72 478.28 558.72 479.27 558.24 C480.84 557.49 482.42 556.74 484 556 C477.58 553.47 471.93 552.54 465.06 552.49 C464.13 552.47 463.21 552.45 462.25 552.43 C459.31 552.38 456.38 552.35 453.44 552.31 C451.49 552.28 449.55 552.24 447.61 552.21 C442.94 552.13 438.27 552.07 433.59 552.03 C431.12 552 428.65 551.96 426.17 551.91 C424.73 551.89 423.29 551.87 421.85 551.86 C420.61 551.84 419.38 551.81 418.1 551.79 C415.09 551.99 413.47 552.32 411 554 C409.32 556.32 409.32 556.32 407.81 559.06 C396.2 577.9 371.28 594.48 352 605 C351.34 605 350.68 605 350 605 C352.62 592.06 355.54 579.22 358.78 566.41 C359.27 564.49 359.75 562.56 360.22 560.63 C360.91 557.79 361.63 554.96 362.34 552.13 C362.55 551.27 362.76 550.41 362.97 549.52 C364.17 544.88 365.22 542.18 369 539 C370.23 535.9 370.41 534.01 369.15 530.89 C366.3 525.55 362.75 520.73 359 516 C354.47 517.46 351.32 520.02 347.81 523.12 C346.67 524.12 345.52 525.11 344.37 526.1 C343.81 526.59 343.24 527.08 342.66 527.58 C329.66 538.71 329.66 538.71 325.5 539.44 C323 539 323 539 321.36 537.06 C319.48 532.82 319.63 529.13 319.71 524.54 C319.71 523.64 319.72 522.74 319.72 521.81 C319.74 518.93 319.77 516.06 319.81 513.19 C319.83 511.24 319.84 509.28 319.85 507.33 C319.89 502.55 319.94 497.78 320 493 C322.31 492.01 324.62 491.02 327 490 C324.98 477.25 317.69 469.98 308 462 C307.34 461.67 306.68 461.34 306 461 C306.05 461.81 306.09 462.62 306.14 463.45 C306.18 464.52 306.21 465.59 306.25 466.69 C306.3 467.74 306.34 468.8 306.39 469.89 C305.89 473.86 304.86 475.22 302 478 C299.64 479.62 297.17 480.95 294.62 482.25 C293.98 482.6 293.33 482.95 292.66 483.31 C288.83 485.32 285.4 486.77 281 487 C277.16 483.16 277.71 477.98 277.39 472.8 C277.27 471.16 277.16 469.52 277.04 467.89 C276.86 465.32 276.69 462.76 276.53 460.19 C276.37 457.7 276.19 455.22 276.01 452.73 C275.97 451.98 275.93 451.22 275.88 450.45 C275.35 443.62 272.97 437.11 267.75 432.44 C252.28 419.98 228.36 415.9 209.06 415.69 C207.78 415.64 207.78 415.64 206.47 415.6 C199.8 415.53 194.47 416.91 189.4 421.43 C181.7 429.41 169.77 447.49 168.75 458.71 C168.93 461.16 168.93 461.16 170 464 C171.65 464.7 173.32 465.36 175 466 C177.72 467.59 180.36 469.28 183 471 C183 473.12 183 473.12 182 476 C180.4 477.39 180.4 477.39 178.38 478.81 C168.34 485.91 162 496.59 158.5 508.31 C157.91 512.64 157.51 516.83 159 521 C163.09 526.15 168.58 528.78 174.31 531.81 C175.71 532.57 175.71 532.57 177.13 533.33 C179.42 534.56 181.71 535.79 184 537 C181.28 540.35 178.67 543.51 175.38 546.31 C174.36 547.18 174.36 547.18 173.32 548.07 C169.73 551.06 166.08 553.98 162.42 556.89 C158.7 560.13 157.12 561.52 156.7 566.59 C156.9 571.68 157.84 576.63 158.81 581.62 C158.98 582.54 159.14 583.46 159.31 584.4 C160.43 590.23 161.49 595.58 165.92 599.85 C172.95 603.75 182.63 600.28 189.91 598.26 C206.05 593.46 224.38 583.49 234.75 569.67 C235.37 568.84 235.37 568.84 236 568 C236.66 568 237.32 568 238 568 C241.14 577.41 237.45 587 233.27 595.53 C229.4 602.68 224.85 609.1 219.69 615.38 C217.79 618.32 217.85 619.6 218 623 C228.62 625.92 239.41 627.79 250.25 629.69 C252.07 630.01 253.9 630.33 255.72 630.66 C260.15 631.44 264.57 632.22 269 633 C267.95 632.39 266.91 631.78 265.83 631.16 C264.45 630.35 263.08 629.54 261.7 628.73 C261.01 628.33 260.32 627.93 259.61 627.52 C251.54 622.74 249.45 617.97 246.81 609.06 C243.26 594.28 242.62 579.51 242.69 564.38 C242.69 563.06 242.69 563.06 242.69 561.73 C242.79 534.03 245.01 499.09 264 477 C265.93 475.14 267.83 473.59 270 472 C269.16 477.27 267.05 481.86 264.96 486.75 C263.89 490.37 263.84 492.41 265 496 C266.57 497.34 266.57 497.34 268.56 497.88 C269.7 498.25 270.83 498.62 272 499 C270.85 501.42 269.59 503.67 268.2 505.96 C260.06 519.38 256.54 532.29 258 548 C258.97 550.56 259.46 551.62 261.69 553.19 C264.75 554.26 267.78 554.63 271 555 C270 558.01 268.99 561.02 267.93 564.01 C262.99 578.61 264.79 590.4 271.49 604.04 C274.49 609.3 277.47 613.23 283 616 C288.39 616.9 292.18 616.29 296.75 613.25 C298.19 612.2 299.6 611.11 301 610 C301.81 609.41 302.62 608.81 303.45 608.2 C306.45 605.61 308.73 602.68 311.06 599.5 C313.83 595.76 316.6 592.2 320 589 C325 609.12 319.12 630.93 309.04 648.4 C299.79 662.6 287.52 673.46 273 682 C272.37 682.38 271.74 682.76 271.09 683.15 C227.1 709.24 171.22 713.69 121.17 713.39 C119.08 713.37 116.99 713.37 114.9 713.36 C94.47 713.3 74.27 712.8 54 710 C52.85 709.85 51.69 709.7 50.5 709.55 C15.41 704.93 15.41 704.93 2 699 C5.41 695.54 8.9 692.21 12.5 688.94 C13.42 688.1 14.34 687.26 15.28 686.4 C17.03 684.86 18.82 683.35 20.64 681.91 C55.59 653.63 71.22 598.18 76 556 C76.56 550.33 76.86 544.69 77 539 C77.04 538.05 77.08 537.09 77.12 536.11 C77.85 506.04 71.27 477.36 57 451 C56.43 449.95 55.87 448.9 55.29 447.82 C41.1 422.63 20.07 399.29 -3 382 C-4.21 381.07 -5.41 380.13 -6.62 379.2 C-33.1 358.8 -63.12 341.65 -95 331.41 C-95.91 331.12 -96.82 330.82 -97.75 330.52 C-98.95 330.15 -98.95 330.15 -100.17 329.77 C-102 329 -102 329 -103 327 C-62.97 296.27 -18.6 271.48 32 264 C32.76 263.88 33.52 263.77 34.31 263.65 C99.61 254.16 164.14 277.2 216.31 315.56 C248.38 340.13 248.38 340.13 253 354 C248.9 352.56 245.76 350.55 242.25 348 C202.02 319.64 154.49 303.48 105.25 303.69 C103.93 303.69 103.93 303.69 102.58 303.69 C89.84 303.73 77.47 304.14 65 307 C64.02 307.2 64.02 307.2 63.01 307.41 C51.86 309.69 31.87 315.89 25 326 C25.3 330.71 27.26 332.66 30.62 335.81 C35.02 340.04 39.1 344.32 43 349 C43.46 349.55 43.91 350.1 44.39 350.66 C52.29 360.18 59.88 369.88 67 380 C67.42 380.6 67.85 381.2 68.28 381.82 C108.09 438.79 122.86 509 110.8 577.25 C105.9 603 96.88 628.67 83.5 651.26 C83.08 651.97 82.66 652.68 82.24 653.41 C81.44 654.76 80.63 656.1 79.79 657.42 C76.97 662.17 76.46 665.48 77 671 C81.18 678.36 88.86 680.52 96.5 683.25 C107.58 685.62 119.1 685.24 130.38 685.25 C131.73 685.25 131.73 685.25 133.11 685.25 C156.85 685.22 180.05 683.37 203 677 C204.18 676.68 204.18 676.68 205.38 676.35 C222.22 671.59 239.11 664.22 251 651 C251 650.67 251 650.34 251 650 C212.58 643.11 212.58 643.11 173.75 644 C159.3 645.84 159.3 645.84 155.74 643.55 C153.29 639.96 152.25 636.36 151.12 632.19 C150.75 630.82 150.75 630.82 150.36 629.43 C130.97 556.5 127.25 469.47 163 401 C165.24 397.27 167.05 394.49 170.81 392.25 C171.75 391.67 171.75 391.67 172.71 391.08 C180.55 387.39 188.41 387.64 196.88 387.69 C197.57 387.69 198.26 387.69 198.98 387.69 C209.59 387.74 219.69 388.26 230 391 C231.24 391.33 232.48 391.66 233.75 392 C253.18 397.85 268.63 409.26 283.85 422.32 C286.67 424.73 289.54 427.06 292.44 429.38 C298.12 434 303.44 438.98 308.78 443.99 C311.82 446.84 314.93 449.61 318.09 452.34 C322.11 455.83 326.04 459.43 330 463 C331.67 464.5 333.33 466 335 467.5 C335.83 468.25 336.66 468.99 337.51 469.76 C339.15 471.23 340.79 472.71 342.43 474.18 C347.49 478.73 352.53 483.31 357.54 487.91 C361.48 491.53 365.45 495.11 369.44 498.68 C371.28 500.35 373.12 502.03 374.94 503.72 C389.29 517.05 403.08 528.77 423.64 528.38 C437.24 526.85 452.66 520.48 463.74 512.69 C465.23 510.96 465.23 510.96 465.47 508.14 C464.86 504.08 463.43 502.7 460.56 499.81 C459.63 498.85 458.7 497.89 457.78 496.92 C457.31 496.44 456.84 495.95 456.35 495.45 C454.31 493.26 452.48 490.92 450.62 488.56 C446.8 483.81 442.65 479.54 438.31 475.27 C434.93 471.96 431.75 468.56 428.68 464.96 C427.5 463.58 426.28 462.22 425.04 460.89 C420.07 455.55 415.55 449.97 411.12 444.19 C410.57 443.46 410.01 442.73 409.43 441.98 C401.82 431.95 401.82 431.95 402 426 C402.61 426.24 403.21 426.47 403.84 426.72 C432.98 438 463.11 448.27 494.72 448.1 C495.71 448.1 496.69 448.09 497.71 448.09 C500.83 448.09 503.95 448.08 507.06 448.06 C509.19 448.06 511.32 448.05 513.44 448.05 C518.63 448.04 523.81 448.02 529 448 C526.4 428.01 526.4 428.01 520 409 C519.51 407.91 519.02 406.82 518.51 405.7 C510.58 389.6 497.57 378 480.61 372.08 C471.96 369.49 463.12 367.61 454.31 365.62 C453.25 365.38 452.18 365.14 451.08 364.89 C389.64 347.62 389.64 347.62 329 354 C328.67 359.61 328.34 365.22 328 371 C304.53 360.67 283.46 338.92 268 319 C266.95 317.7 265.89 316.39 264.84 315.09 C246.95 292.86 233.3 268.16 220.88 242.56 C220.32 241.42 219.76 240.28 219.19 239.1 C216.65 233.8 214.34 228.73 213 223 C238.64 222.33 264.84 230.3 287 243 C287.65 243.37 288.3 243.74 288.96 244.12 C303.53 252.5 316.15 263.16 328.41 274.59 C331.19 277.17 334.03 279.67 336.91 282.15 C338.48 283.54 340.03 284.97 341.56 286.41 C354.76 298.84 368.98 309.49 385 318 C385.78 318.41 386.56 318.83 387.36 319.25 C414.61 333.49 463.94 353.99 495.39 345.34 C499.22 343.75 500.76 342.38 503 338.81 C508.49 317.9 493.08 294.67 483.18 277.32 C473.88 261.44 463.17 246.79 451 233 C450.31 232.2 449.62 231.4 448.91 230.58 C438.27 218.42 426.76 206.92 414 197 C412.94 196.12 411.89 195.24 410.84 194.36 C393.98 180.31 375.23 168.52 356 158 C355.14 157.53 354.28 157.05 353.4 156.56 C314.07 134.99 265.43 114.05 220.28 109.74 C209.53 108.63 200.63 103.12 191.25 98.12 C189.4 97.16 187.55 96.19 185.7 95.23 C182.07 93.34 178.45 91.44 174.83 89.54 C133.58 67.85 89.49 46.89 44 36 C47.77 64.91 60.61 92.22 72.38 118.66 C72.9 119.82 73.42 120.98 73.95 122.18 C74.92 124.35 75.9 126.51 76.89 128.66 C77.32 129.61 77.74 130.56 78.18 131.53 C78.56 132.35 78.94 133.17 79.33 134.02 C79.55 134.67 79.77 135.33 80 136 C79.67 136.66 79.34 137.32 79 138 C77.89 136.98 77.89 136.98 76.75 135.95 C47.79 110.08 11.09 102.54 -26.81 102.69 C-27.81 102.69 -28.81 102.69 -29.83 102.69 C-45.42 102.75 -60.6 103.36 -76 106 C-77.17 106.19 -78.34 106.39 -79.54 106.59 C-94.76 109.15 -109.68 112.51 -124.56 116.56 C-125.58 116.84 -125.58 116.84 -126.61 117.12 C-132.43 118.71 -138.24 120.31 -143.9 122.43 C-144.53 122.66 -145.16 122.9 -145.81 123.14 C-147.54 123.8 -149.27 124.48 -150.99 125.16 C-154.17 126.05 -155.88 125.94 -159 125 C-156.59 119.75 -153.15 118 -148.25 115.44 C-147.46 115.01 -146.67 114.59 -145.86 114.15 C-144.15 113.24 -142.43 112.33 -140.71 111.43 C-137.96 109.98 -135.21 108.51 -132.47 107.04 C-88.27 83.47 -37.08 61.38 14 63 C13.44 61.42 13.44 61.42 12.86 59.8 C7.65 44.85 3.85 29.67 1.19 14.06 C1 12.97 1 12.97 0.81 11.86 C0.17 7.87 -0.12 4.04 0 0 Z M266 65 C266.64 70.18 267.61 74.38 270 79 C274.6 82.26 279.5 83.69 284.88 85.25 C286.25 85.69 287.63 86.14 289 86.6 C292.65 87.79 296.32 88.89 300 90 C302 90.66 304 91.32 306 92 C296.95 82.01 284.31 75.14 273 68 C272.05 67.4 271.1 66.8 270.12 66.18 C268.11 64.84 268.11 64.84 266 65 Z M522 487 C520.64 488.42 520.64 488.42 519.19 490.31 C513.05 497.53 505.49 504.17 497.25 508.88 C493.92 510.62 493.92 510.62 493.06 513.19 C492.97 517.16 494.73 519.79 496.75 523.06 C497.11 523.67 497.47 524.29 497.84 524.92 C499.73 528.08 501.72 531.11 504 534 C506.35 533.62 507.67 533.36 509.32 531.59 C513 525.53 515.37 519.18 517.69 512.5 C518.08 511.41 518.47 510.32 518.87 509.2 C522.94 498.38 522.94 498.38 524 487 C523.34 487 522.68 487 522 487 Z " fill="#0E0C0F" transform="translate(441,3)"/>
<path d="M0 0 C5.91 0.47 10.21 1.63 15.38 4.5 C16.03 4.86 16.68 5.22 17.36 5.59 C27.37 11.3 34.78 19.71 42.47 28.15 C49.38 35.68 56.87 41.82 65.33 47.52 C69.9 50.69 69.9 50.69 71 54 C53.56 53.14 34.13 47.77 21 36 C20.25 35.35 19.5 34.71 18.73 34.04 C9.75 25.78 2.91 13.53 -1 2 C-0.67 1.34 -0.34 0.68 0 0 Z " fill="#F90800" transform="translate(726,265)"/>
</svg>
